<svg id="svg" version="1.1" xmlns="http://www.w3.org/2000/svg" xmlns:xlink="http://www.w3.org/1999/xlink" width="111" height="48" viewBox="0, 0, 400,172.97297297297297"><g id="svgg"><path id="path0" d="M16.378 84.890 C 16.315 84.954,16.263 104.807,16.263 129.008 L 16.263 173.010 27.076 173.010 L 37.889 173.010 37.889 164.836 L 37.889 156.661 39.706 156.715 L 41.522 156.770 41.522 164.890 L 41.522 173.010 50.519 173.010 L 59.516 173.010 59.516 164.885 L 59.516 156.760 61.202 156.710 L 62.889 156.661 62.977 136.851 L 63.064 117.042 63.107 145.026 L 63.149 173.010 73.875 173.010 L 84.602 173.010 84.602 128.892 L 84.602 84.773 70.285 84.817 L 55.969 84.862 55.924 93.804 L 55.879 102.746 54.064 102.800 C 53.066 102.830,51.432 102.830,50.433 102.800 L 48.616 102.746 48.616 95.510 L 48.616 88.275 48.054 88.161 C 47.744 88.099,45.117 87.983,42.215 87.903 C 35.591 87.721,35.179 87.601,34.490 85.662 L 34.175 84.775 25.334 84.775 C 20.472 84.775,16.442 84.827,16.378 84.890 M120.660 85.078 C 119.926 87.544,119.715 87.608,111.851 87.726 C 107.590 87.789,105.002 87.901,104.109 88.059 L 102.768 88.297 102.768 97.343 L 102.768 106.389 100.995 106.439 L 99.221 106.488 99.177 118.960 L 99.133 131.433 97.360 131.590 L 95.588 131.747 95.544 144.231 L 95.499 156.714 93.851 156.774 C 92.622 156.819,92.160 156.900,92.038 157.093 C 91.941 157.247,91.873 160.556,91.871 165.182 L 91.869 173.010 102.682 173.010 L 113.495 173.010 113.495 166.696 L 113.495 160.381 120.675 160.381 L 127.855 160.381 127.855 166.696 L 127.855 173.010 138.668 173.010 L 149.481 173.010 149.481 164.986 L 149.481 156.961 149.092 156.856 C 148.878 156.799,148.099 156.751,147.362 156.750 L 146.021 156.747 146.021 145.528 C 146.021 139.357,145.971 133.720,145.910 133.002 L 145.800 131.695 144.094 131.573 L 142.388 131.451 142.385 117.499 C 142.384 109.825,142.336 103.372,142.278 103.157 C 142.179 102.787,142.091 102.768,140.464 102.768 L 138.754 102.768 138.754 94.045 C 138.754 89.248,138.707 85.199,138.649 85.049 C 138.479 84.606,120.792 84.634,120.660 85.078 M185.324 85.526 C 184.493 87.406,184.052 87.494,174.827 87.624 C 169.600 87.698,166.672 87.810,165.484 87.983 C 164.533 88.122,163.015 88.293,162.111 88.365 L 160.467 88.495 160.418 90.182 L 160.368 91.869 159.002 91.869 C 156.776 91.869,156.747 91.894,156.747 93.854 L 156.747 95.502 155.100 95.502 C 152.923 95.502,153.114 94.285,153.114 108.131 C 153.114 121.976,152.924 120.761,155.096 120.761 L 156.740 120.761 156.787 124.265 L 156.834 127.768 158.601 127.921 L 160.369 128.074 160.418 129.738 L 160.467 131.401 164.051 131.448 L 167.635 131.495 167.684 133.265 L 167.734 135.035 169.420 135.084 L 171.107 135.134 171.107 136.383 C 171.107 137.070,171.180 137.885,171.268 138.193 L 171.429 138.754 162.440 138.754 L 153.452 138.754 153.283 139.198 C 153.055 139.798,153.055 162.971,153.283 163.570 C 153.448 164.004,153.490 164.014,155.100 164.014 L 156.747 164.014 156.747 165.662 C 156.747 167.622,156.776 167.647,159.002 167.647 L 160.368 167.647 160.418 169.334 L 160.467 171.021 161.419 171.133 C 161.942 171.195,163.558 171.254,165.009 171.263 L 167.647 171.280 167.647 172.145 L 167.647 173.010 180.190 173.010 L 192.734 173.010 192.734 172.145 L 192.734 171.280 195.372 171.263 C 196.823 171.254,198.439 171.195,198.962 171.133 L 199.913 171.021 199.963 169.350 L 200.012 167.680 201.656 167.620 C 203.637 167.548,203.627 167.558,203.631 165.534 L 203.633 164.026 205.309 163.977 L 206.986 163.927 207.130 163.368 C 207.317 162.646,207.226 135.542,207.036 135.352 C 206.957 135.272,206.159 135.181,205.263 135.148 L 203.633 135.088 203.633 131.831 C 203.633 127.696,203.800 128.028,201.718 128.028 L 200.012 128.028 199.963 126.254 L 199.913 124.481 196.330 124.434 L 192.746 124.387 192.696 122.618 L 192.647 120.848 190.874 120.798 L 189.100 120.749 189.100 119.044 C 189.100 116.961,189.434 117.128,185.280 117.128 L 182.007 117.128 182.004 115.614 C 182.001 113.583,182.011 113.594,180.030 113.522 L 178.386 113.462 178.337 111.791 L 178.287 110.121 176.514 109.964 L 174.740 109.806 174.740 106.287 L 174.740 102.768 178.371 102.768 L 182.002 102.768 182.048 108.088 L 182.093 113.408 192.723 113.453 C 201.111 113.488,203.381 113.452,203.490 113.280 C 203.702 112.945,203.668 96.237,203.454 95.836 C 203.296 95.542,203.079 95.502,201.638 95.502 L 200.000 95.502 200.000 92.052 C 200.000 89.617,199.941 88.565,199.799 88.477 C 199.688 88.409,198.056 88.316,196.172 88.271 L 192.746 88.188 192.696 86.525 L 192.647 84.862 189.153 84.815 L 185.659 84.768 185.324 85.526 M214.448 85.683 C 214.288 87.008,214.420 106.001,214.590 106.171 C 214.670 106.250,217.920 106.342,221.814 106.374 L 228.893 106.434 228.893 139.722 L 228.893 173.010 239.706 173.010 L 250.519 173.010 250.519 139.725 L 250.519 106.439 255.701 106.377 C 259.031 106.337,260.948 106.250,261.065 106.132 C 261.191 106.006,261.234 102.645,261.204 95.405 L 261.159 84.862 255.796 84.818 L 250.433 84.774 250.145 85.461 C 249.350 87.360,248.196 87.573,239.074 87.509 L 231.747 87.457 230.780 87.003 C 229.833 86.559,229.231 85.941,228.990 85.164 L 228.869 84.775 221.714 84.775 L 214.558 84.775 214.448 85.683 M275.717 86.099 C 275.656 86.827,275.606 106.680,275.606 130.216 L 275.606 173.010 295.415 173.010 L 315.225 173.010 315.225 163.174 L 315.225 153.338 313.901 153.226 C 313.173 153.165,309.125 153.114,304.905 153.114 L 297.232 153.114 297.232 145.936 L 297.232 138.758 304.361 138.713 L 311.490 138.668 311.610 138.235 C 311.676 137.997,311.730 133.365,311.730 127.941 C 311.730 122.517,311.676 117.885,311.610 117.647 L 311.490 117.215 304.361 117.169 L 297.232 117.124 297.232 111.779 L 297.232 106.434 304.311 106.374 C 308.204 106.342,311.455 106.250,311.534 106.171 C 311.704 106.001,311.836 87.008,311.676 85.683 L 311.567 84.775 293.698 84.775 L 275.829 84.775 275.717 86.099 M326.241 84.890 C 326.177 84.954,326.125 104.807,326.125 129.008 L 326.125 173.010 336.938 173.010 L 347.751 173.010 347.751 154.066 L 347.751 135.121 351.384 135.121 L 355.017 135.121 355.017 154.066 L 355.017 173.010 365.830 173.010 L 376.644 173.010 376.644 153.659 C 376.644 143.016,376.594 133.720,376.533 133.002 L 376.423 131.695 374.717 131.573 L 373.010 131.451 373.008 130.128 C 373.004 128.137,372.963 128.056,371.911 127.982 L 371.021 127.919 371.909 127.887 C 372.961 127.849,373.004 127.765,373.008 125.752 L 373.010 124.428 374.640 124.368 C 375.536 124.335,376.334 124.243,376.413 124.164 C 376.599 123.978,376.697 98.602,376.519 96.886 L 376.384 95.588 374.707 95.539 L 373.030 95.489 372.977 92.049 C 372.948 90.157,372.869 88.555,372.802 88.488 C 372.734 88.421,371.122 88.325,369.218 88.276 L 365.756 88.186 365.707 86.524 L 365.657 84.862 346.007 84.818 C 335.199 84.793,326.304 84.826,326.241 84.890 M355.017 109.948 L 355.017 117.128 351.384 117.128 L 347.751 117.128 347.751 109.948 L 347.751 102.768 351.384 102.768 L 355.017 102.768 355.017 109.948 M122.967 124.392 L 124.394 124.394 124.394 133.391 L 124.394 142.388 120.761 142.388 L 117.128 142.388 117.128 135.226 L 117.128 128.065 118.843 127.942 C 120.842 127.799,120.755 127.904,120.759 125.629 C 120.761 124.212,120.770 124.183,121.151 124.285 C 121.365 124.343,122.182 124.391,122.967 124.392 M178.374 140.363 C 178.374 142.385,178.376 142.388,180.398 142.388 L 182.007 142.388 182.007 144.025 C 182.007 146.004,182.025 146.021,184.158 146.021 L 185.640 146.021 185.640 149.540 L 185.640 153.059 183.867 153.216 L 182.093 153.374 182.044 155.061 L 181.994 156.747 180.190 156.747 L 178.386 156.747 178.337 155.061 L 178.287 153.374 176.514 153.216 L 174.740 153.059 174.740 146.008 C 174.740 140.528,174.692 138.937,174.524 138.869 C 174.405 138.821,175.223 138.775,176.341 138.768 L 178.374 138.754 178.374 140.363 " stroke="none" fill="#fcfcfc" fill-rule="evenodd"></path><path id="path1" d="M149.565 43.702 C 149.567 82.365,149.598 87.527,149.827 87.809 C 149.976 87.993,149.994 88.073,149.870 87.999 C 149.751 87.927,149.654 87.946,149.654 88.041 C 149.654 88.153,152.164 88.219,156.766 88.230 L 163.878 88.245 164.609 87.572 C 166.119 86.179,166.320 86.152,174.888 86.163 C 183.028 86.173,182.833 86.192,184.752 85.220 L 185.655 84.762 185.604 75.873 C 185.576 70.984,185.489 66.919,185.410 66.840 C 185.330 66.760,182.080 66.669,178.186 66.636 L 171.107 66.576 171.107 33.288 L 171.107 0.000 167.301 0.000 L 163.495 0.000 163.495 0.948 C 163.495 1.553,163.332 2.318,163.044 3.067 C 160.887 8.675,160.479 9.864,160.208 11.332 C 160.068 12.086,158.891 15.285,157.087 19.810 C 155.082 24.838,154.099 27.529,153.898 28.547 C 153.433 30.896,153.239 31.478,153.094 30.960 C 153.006 30.646,152.968 30.760,152.946 31.401 C 152.929 31.877,152.853 32.617,152.777 33.045 L 152.638 33.824 152.617 32.728 C 152.591 31.414,152.217 31.314,152.068 32.582 C 151.928 33.781,151.558 34.046,151.554 32.950 C 151.553 32.333,151.505 32.166,151.384 32.353 C 151.272 32.527,151.204 31.615,151.179 29.585 L 151.141 26.557 151.046 28.720 C 150.982 30.189,150.905 30.753,150.806 30.480 C 150.542 29.751,150.434 30.274,150.316 32.843 C 150.251 34.239,150.118 36.432,150.020 37.716 C 149.922 39.001,149.820 41.414,149.792 43.080 C 149.765 44.745,149.702 35.714,149.653 23.010 C 149.589 6.507,149.564 12.414,149.565 43.702 M203.633 9.942 L 203.633 19.884 201.860 19.933 L 200.087 19.983 200.042 32.462 L 199.998 44.942 198.312 45.067 C 197.375 45.137,196.570 45.281,196.499 45.391 C 196.429 45.499,196.371 51.128,196.369 57.899 L 196.367 70.209 194.737 70.269 C 193.841 70.302,193.043 70.394,192.964 70.473 C 192.793 70.644,192.663 86.014,192.822 87.328 L 192.932 88.238 203.603 88.193 L 214.273 88.149 214.319 81.012 L 214.364 73.875 221.628 73.875 L 228.893 73.875 228.894 79.369 L 228.895 84.862 229.456 85.242 C 231.230 86.446,230.963 86.414,239.465 86.469 C 248.079 86.524,248.104 86.521,249.808 85.268 L 250.551 84.722 250.492 77.669 C 250.459 73.790,250.368 70.552,250.289 70.473 C 250.210 70.394,249.412 70.302,248.515 70.269 L 246.886 70.209 246.883 58.072 C 246.882 51.396,246.836 45.767,246.781 45.563 C 246.691 45.225,246.523 45.179,244.967 45.068 L 243.253 44.945 243.253 30.878 C 243.253 23.141,243.205 16.687,243.148 16.537 C 243.062 16.313,242.732 16.263,241.331 16.263 L 239.619 16.263 239.619 8.131 L 239.619 0.000 221.626 0.000 L 203.633 0.000 203.633 9.942 M223.778 37.889 L 225.260 37.889 225.260 46.886 L 225.260 55.882 221.626 55.882 L 217.993 55.882 217.993 48.730 L 217.993 41.578 219.766 41.420 L 221.540 41.263 221.589 39.400 C 221.636 37.631,221.655 37.546,221.967 37.713 C 222.148 37.810,222.962 37.889,223.778 37.889 M134.732 73.558 C 134.476 73.827,134.470 73.875,134.694 73.875 C 134.840 73.875,135.005 73.755,135.061 73.608 C 135.211 73.217,135.077 73.197,134.732 73.558 M129.845 80.968 C 129.780 81.073,129.995 81.142,130.382 81.142 C 131.101 81.142,131.111 81.072,130.417 80.906 C 130.161 80.845,129.904 80.873,129.845 80.968 M124.308 84.602 L 122.405 84.707 124.221 84.738 C 125.221 84.756,126.155 84.694,126.298 84.602 C 126.440 84.510,126.479 84.449,126.384 84.466 C 126.289 84.483,125.355 84.545,124.308 84.602 " stroke="none" fill="#353ffc" fill-rule="evenodd"></path><path id="path2" d="M34.256 0.840 L 34.256 1.680 30.788 1.770 C 26.735 1.876,27.091 1.692,27.017 3.718 L 26.957 5.331 25.344 5.390 C 23.318 5.465,23.502 5.110,23.397 9.156 L 23.307 12.618 21.645 12.667 L 19.983 12.716 19.983 43.253 L 19.983 73.789 21.645 73.838 L 23.307 73.887 23.397 77.349 C 23.502 81.396,23.318 81.040,25.344 81.115 L 26.957 81.174 27.017 82.788 C 27.091 84.813,26.700 84.619,31.002 84.768 C 34.555 84.891,34.729 84.913,35.813 85.394 C 36.931 85.891,36.963 85.894,41.263 85.986 C 46.168 86.092,46.717 86.219,48.021 87.554 L 48.686 88.235 52.179 88.235 C 56.217 88.235,55.882 88.416,55.882 86.232 L 55.882 84.775 58.105 84.775 C 59.328 84.775,60.924 84.725,61.652 84.663 L 62.976 84.551 62.976 82.847 L 62.976 81.142 64.403 81.140 C 66.823 81.136,66.609 81.498,66.609 77.408 L 66.609 73.888 68.382 73.838 L 70.156 73.789 70.200 61.382 C 70.244 49.163,70.239 48.973,69.901 48.792 C 69.302 48.471,48.992 48.635,48.785 48.962 C 48.687 49.118,48.620 53.413,48.619 59.732 L 48.616 70.242 44.983 70.242 L 41.349 70.242 41.349 43.253 L 41.349 16.263 44.983 16.263 L 48.616 16.263 48.619 26.773 C 48.620 33.092,48.687 37.387,48.785 37.543 C 48.991 37.870,69.302 38.034,69.900 37.714 C 70.379 37.458,70.447 9.285,69.969 9.102 C 69.818 9.044,69.001 8.997,68.152 8.997 L 66.609 8.997 66.609 7.287 C 66.609 5.283,66.708 5.369,64.403 5.366 L 62.976 5.363 62.976 3.659 L 62.976 1.954 61.652 1.842 C 60.924 1.780,59.328 1.730,58.105 1.730 L 55.882 1.730 55.882 0.865 L 55.882 0.000 45.069 0.000 L 34.256 0.000 34.256 0.840 M99.135 0.840 L 99.135 1.680 95.655 1.771 C 91.611 1.876,91.875 1.732,91.871 3.833 L 91.869 5.330 90.239 5.390 C 88.174 5.466,88.331 5.165,88.266 9.178 L 88.209 12.618 86.536 12.667 L 84.862 12.716 84.862 43.253 L 84.862 73.789 86.536 73.838 L 88.209 73.888 88.266 77.328 C 88.331 81.340,88.174 81.039,90.239 81.115 L 91.869 81.175 91.871 82.672 C 91.875 84.773,91.611 84.629,95.649 84.734 L 99.123 84.825 99.172 86.487 L 99.221 88.149 100.937 88.199 L 102.654 88.249 103.273 87.647 C 103.614 87.315,104.321 86.846,104.844 86.604 L 105.796 86.163 111.458 86.161 C 117.445 86.159,118.592 86.011,120.138 85.040 C 120.530 84.794,122.891 84.598,125.731 84.576 C 127.756 84.560,127.907 84.473,127.848 83.354 C 127.826 82.946,127.819 82.282,127.831 81.877 L 127.855 81.142 128.796 81.142 C 129.314 81.142,129.782 81.069,129.837 80.980 C 129.892 80.891,130.201 80.861,130.523 80.914 C 131.384 81.053,131.454 80.778,131.475 77.169 C 131.496 73.527,131.398 73.726,133.120 73.837 C 134.239 73.909,134.429 73.876,134.751 73.554 L 135.115 73.190 135.075 42.953 L 135.035 12.716 133.261 12.667 L 131.488 12.618 131.488 9.097 C 131.488 5.007,131.702 5.370,129.282 5.366 L 127.855 5.363 127.855 3.659 L 127.855 1.954 126.531 1.842 C 125.803 1.780,124.207 1.730,122.984 1.730 L 120.761 1.730 120.761 0.865 L 120.761 0.000 109.948 0.000 L 99.135 0.000 99.135 0.840 M149.681 23.054 C 149.700 38.496,149.753 44.575,149.843 41.465 C 149.917 38.912,150.061 36.289,150.162 35.636 C 150.263 34.983,150.351 33.608,150.358 32.579 C 150.372 30.487,150.531 29.712,150.796 30.450 C 150.909 30.764,150.977 30.293,151.046 28.720 L 151.141 26.557 151.179 29.585 C 151.204 31.615,151.272 32.527,151.384 32.353 C 151.505 32.166,151.553 32.333,151.554 32.950 C 151.558 34.046,151.928 33.781,152.068 32.582 C 152.217 31.314,152.591 31.414,152.617 32.728 L 152.638 33.824 152.777 33.045 C 152.853 32.617,152.929 31.877,152.946 31.401 C 152.968 30.760,153.006 30.646,153.094 30.960 C 153.239 31.478,153.433 30.896,153.898 28.547 C 154.099 27.529,155.082 24.838,157.087 19.810 C 158.891 15.285,160.068 12.086,160.208 11.332 C 160.479 9.864,160.887 8.675,163.044 3.067 C 163.332 2.318,163.495 1.553,163.495 0.948 L 163.495 0.000 156.574 0.000 L 149.654 0.000 149.681 23.054 M113.495 43.253 L 113.495 70.242 109.862 70.242 L 106.228 70.242 106.228 43.253 L 106.228 16.263 109.862 16.263 L 113.495 16.263 113.495 43.253 " stroke="none" fill="#cc0afc" fill-rule="evenodd"></path><path id="path3" d="" stroke="none" fill="#100bcfc" fill-rule="evenodd"></path><path id="path4" d="" stroke="none" fill="#100bcfc" fill-rule="evenodd"></path></g></svg>